<mxfile host="app.diagrams.net" modified="2021-04-22T09:39:59.404Z" agent="5.0 (Windows)" etag="KheZ5ZBI-CuWXH2SLpNu" version="14.6.3" type="github">
  <diagram id="0iRO8PW-6I8gWk-Rv-2x" name="第 1 页">
    <mxGraphModel dx="1769" dy="583" grid="1" gridSize="10" guides="1" tooltips="1" connect="1" arrows="1" fold="1" page="1" pageScale="1" pageWidth="827" pageHeight="1169" math="0" shadow="0">
      <root>
        <mxCell id="0" />
        <mxCell id="1" parent="0" />
        <mxCell id="UjNS-eEij6xjlg-LVTEn-31" style="edgeStyle=orthogonalEdgeStyle;rounded=0;orthogonalLoop=1;jettySize=auto;html=1;" edge="1" parent="1" source="UjNS-eEij6xjlg-LVTEn-28" target="UjNS-eEij6xjlg-LVTEn-25">
          <mxGeometry relative="1" as="geometry" />
        </mxCell>
        <mxCell id="UjNS-eEij6xjlg-LVTEn-28" value="" style="rounded=1;whiteSpace=wrap;html=1;" vertex="1" parent="1">
          <mxGeometry x="517" y="189" width="280" height="82" as="geometry" />
        </mxCell>
        <mxCell id="UjNS-eEij6xjlg-LVTEn-21" value="" style="edgeStyle=orthogonalEdgeStyle;rounded=0;orthogonalLoop=1;jettySize=auto;html=1;" edge="1" parent="1" source="UjNS-eEij6xjlg-LVTEn-12" target="UjNS-eEij6xjlg-LVTEn-19">
          <mxGeometry relative="1" as="geometry" />
        </mxCell>
        <mxCell id="UjNS-eEij6xjlg-LVTEn-12" value="" style="rounded=0;whiteSpace=wrap;html=1;" vertex="1" parent="1">
          <mxGeometry x="330" y="2" width="170" height="230" as="geometry" />
        </mxCell>
        <mxCell id="UjNS-eEij6xjlg-LVTEn-11" value="" style="rounded=0;whiteSpace=wrap;html=1;" vertex="1" parent="1">
          <mxGeometry x="150" y="2" width="170" height="230" as="geometry" />
        </mxCell>
        <mxCell id="UjNS-eEij6xjlg-LVTEn-20" style="edgeStyle=orthogonalEdgeStyle;rounded=0;orthogonalLoop=1;jettySize=auto;html=1;entryX=0;entryY=0.5;entryDx=0;entryDy=0;" edge="1" parent="1" source="UjNS-eEij6xjlg-LVTEn-4" target="UjNS-eEij6xjlg-LVTEn-11">
          <mxGeometry relative="1" as="geometry" />
        </mxCell>
        <mxCell id="UjNS-eEij6xjlg-LVTEn-4" value="患者就诊所有信息" style="rounded=1;whiteSpace=wrap;html=1;" vertex="1" parent="1">
          <mxGeometry x="10" y="87" width="110" height="60" as="geometry" />
        </mxCell>
        <mxCell id="UjNS-eEij6xjlg-LVTEn-5" value="患者基础信息" style="rounded=1;whiteSpace=wrap;html=1;" vertex="1" parent="1">
          <mxGeometry x="180" y="17" width="120" height="60" as="geometry" />
        </mxCell>
        <mxCell id="UjNS-eEij6xjlg-LVTEn-6" value="药品信息" style="rounded=1;whiteSpace=wrap;html=1;" vertex="1" parent="1">
          <mxGeometry x="180" y="87" width="120" height="60" as="geometry" />
        </mxCell>
        <mxCell id="UjNS-eEij6xjlg-LVTEn-7" value="费用信息" style="rounded=1;whiteSpace=wrap;html=1;" vertex="1" parent="1">
          <mxGeometry x="180" y="157" width="120" height="60" as="geometry" />
        </mxCell>
        <mxCell id="UjNS-eEij6xjlg-LVTEn-8" value="行为信息" style="rounded=1;whiteSpace=wrap;html=1;" vertex="1" parent="1">
          <mxGeometry x="350" y="17" width="120" height="60" as="geometry" />
        </mxCell>
        <mxCell id="UjNS-eEij6xjlg-LVTEn-10" value="二次数据整理" style="rounded=1;whiteSpace=wrap;html=1;" vertex="1" parent="1">
          <mxGeometry x="352.5" y="87" width="125" height="130" as="geometry" />
        </mxCell>
        <mxCell id="UjNS-eEij6xjlg-LVTEn-13" value="第二次清洗" style="text;html=1;strokeColor=none;fillColor=none;align=center;verticalAlign=middle;whiteSpace=wrap;rounded=0;" vertex="1" parent="1">
          <mxGeometry x="375" y="250" width="70" height="20" as="geometry" />
        </mxCell>
        <mxCell id="UjNS-eEij6xjlg-LVTEn-14" value="第一次清洗" style="text;html=1;strokeColor=none;fillColor=none;align=center;verticalAlign=middle;whiteSpace=wrap;rounded=0;" vertex="1" parent="1">
          <mxGeometry x="210" y="250" width="70" height="20" as="geometry" />
        </mxCell>
        <mxCell id="UjNS-eEij6xjlg-LVTEn-17" value="年龄 等" style="text;html=1;strokeColor=none;fillColor=none;align=center;verticalAlign=middle;whiteSpace=wrap;rounded=0;" vertex="1" parent="1">
          <mxGeometry x="375" y="175.5" width="80" height="23" as="geometry" />
        </mxCell>
        <mxCell id="UjNS-eEij6xjlg-LVTEn-29" style="edgeStyle=orthogonalEdgeStyle;rounded=0;orthogonalLoop=1;jettySize=auto;html=1;entryX=0.436;entryY=0.012;entryDx=0;entryDy=0;entryPerimeter=0;" edge="1" parent="1" source="UjNS-eEij6xjlg-LVTEn-19" target="UjNS-eEij6xjlg-LVTEn-28">
          <mxGeometry relative="1" as="geometry" />
        </mxCell>
        <mxCell id="UjNS-eEij6xjlg-LVTEn-19" value="维度信息Fact" style="rounded=1;whiteSpace=wrap;html=1;" vertex="1" parent="1">
          <mxGeometry x="580" y="87" width="120" height="60" as="geometry" />
        </mxCell>
        <mxCell id="UjNS-eEij6xjlg-LVTEn-22" value="药品标识" style="rounded=1;whiteSpace=wrap;html=1;" vertex="1" parent="1">
          <mxGeometry x="533" y="208.5" width="70" height="40" as="geometry" />
        </mxCell>
        <mxCell id="UjNS-eEij6xjlg-LVTEn-23" value="费用标识" style="rounded=1;whiteSpace=wrap;html=1;" vertex="1" parent="1">
          <mxGeometry x="613" y="208.5" width="70" height="40" as="geometry" />
        </mxCell>
        <mxCell id="UjNS-eEij6xjlg-LVTEn-24" value="基础西信息" style="rounded=1;whiteSpace=wrap;html=1;" vertex="1" parent="1">
          <mxGeometry x="693" y="208.5" width="70" height="40" as="geometry" />
        </mxCell>
        <mxCell id="UjNS-eEij6xjlg-LVTEn-33" value="" style="edgeStyle=orthogonalEdgeStyle;rounded=0;orthogonalLoop=1;jettySize=auto;html=1;" edge="1" parent="1" source="UjNS-eEij6xjlg-LVTEn-25" target="UjNS-eEij6xjlg-LVTEn-32">
          <mxGeometry relative="1" as="geometry">
            <Array as="points">
              <mxPoint x="657" y="440" />
              <mxPoint x="657" y="440" />
            </Array>
          </mxGeometry>
        </mxCell>
        <mxCell id="UjNS-eEij6xjlg-LVTEn-25" value="确定规则标识" style="rounded=1;whiteSpace=wrap;html=1;" vertex="1" parent="1">
          <mxGeometry x="508.5" y="330" width="297" height="80" as="geometry" />
        </mxCell>
        <mxCell id="UjNS-eEij6xjlg-LVTEn-37" style="edgeStyle=orthogonalEdgeStyle;rounded=0;orthogonalLoop=1;jettySize=auto;html=1;" edge="1" parent="1" source="UjNS-eEij6xjlg-LVTEn-32">
          <mxGeometry relative="1" as="geometry">
            <mxPoint x="480" y="490" as="targetPoint" />
          </mxGeometry>
        </mxCell>
        <mxCell id="UjNS-eEij6xjlg-LVTEn-32" value="执行规则" style="rounded=1;whiteSpace=wrap;html=1;" vertex="1" parent="1">
          <mxGeometry x="540" y="450" width="265.5" height="80" as="geometry" />
        </mxCell>
        <mxCell id="UjNS-eEij6xjlg-LVTEn-38" style="edgeStyle=orthogonalEdgeStyle;rounded=0;orthogonalLoop=1;jettySize=auto;html=1;entryX=1;entryY=0.5;entryDx=0;entryDy=0;" edge="1" parent="1" source="UjNS-eEij6xjlg-LVTEn-34" target="UjNS-eEij6xjlg-LVTEn-35">
          <mxGeometry relative="1" as="geometry" />
        </mxCell>
        <mxCell id="UjNS-eEij6xjlg-LVTEn-39" style="edgeStyle=orthogonalEdgeStyle;rounded=0;orthogonalLoop=1;jettySize=auto;html=1;entryX=1;entryY=0.5;entryDx=0;entryDy=0;" edge="1" parent="1" source="UjNS-eEij6xjlg-LVTEn-34" target="UjNS-eEij6xjlg-LVTEn-36">
          <mxGeometry relative="1" as="geometry" />
        </mxCell>
        <mxCell id="UjNS-eEij6xjlg-LVTEn-34" value="生产出违规标识" style="rounded=1;whiteSpace=wrap;html=1;" vertex="1" parent="1">
          <mxGeometry x="320" y="450" width="157.5" height="80" as="geometry" />
        </mxCell>
        <mxCell id="UjNS-eEij6xjlg-LVTEn-43" style="edgeStyle=orthogonalEdgeStyle;rounded=0;orthogonalLoop=1;jettySize=auto;html=1;exitX=0;exitY=0.5;exitDx=0;exitDy=0;entryX=0.5;entryY=0;entryDx=0;entryDy=0;" edge="1" parent="1" source="UjNS-eEij6xjlg-LVTEn-35" target="UjNS-eEij6xjlg-LVTEn-42">
          <mxGeometry relative="1" as="geometry" />
        </mxCell>
        <mxCell id="UjNS-eEij6xjlg-LVTEn-35" value="记录违规信息" style="rounded=1;whiteSpace=wrap;html=1;" vertex="1" parent="1">
          <mxGeometry x="110" y="390" width="157.5" height="80" as="geometry" />
        </mxCell>
        <mxCell id="UjNS-eEij6xjlg-LVTEn-44" style="edgeStyle=orthogonalEdgeStyle;rounded=0;orthogonalLoop=1;jettySize=auto;html=1;exitX=0;exitY=0.5;exitDx=0;exitDy=0;entryX=0.5;entryY=1;entryDx=0;entryDy=0;" edge="1" parent="1" source="UjNS-eEij6xjlg-LVTEn-36" target="UjNS-eEij6xjlg-LVTEn-42">
          <mxGeometry relative="1" as="geometry" />
        </mxCell>
        <mxCell id="UjNS-eEij6xjlg-LVTEn-36" value="消息通知医生" style="rounded=1;whiteSpace=wrap;html=1;" vertex="1" parent="1">
          <mxGeometry x="110" y="500" width="157.5" height="80" as="geometry" />
        </mxCell>
        <mxCell id="UjNS-eEij6xjlg-LVTEn-42" value="" style="ellipse;whiteSpace=wrap;html=1;strokeWidth=2;fillWeight=2;hachureGap=8;fillColor=#990000;fillStyle=dots;sketch=1;" vertex="1" parent="1">
          <mxGeometry y="470" width="80" height="40" as="geometry" />
        </mxCell>
        <mxCell id="UjNS-eEij6xjlg-LVTEn-46" style="edgeStyle=orthogonalEdgeStyle;rounded=0;orthogonalLoop=1;jettySize=auto;html=1;entryX=0.5;entryY=0;entryDx=0;entryDy=0;" edge="1" parent="1" source="UjNS-eEij6xjlg-LVTEn-45" target="UjNS-eEij6xjlg-LVTEn-4">
          <mxGeometry relative="1" as="geometry" />
        </mxCell>
        <mxCell id="UjNS-eEij6xjlg-LVTEn-45" value="" style="rounded=1;whiteSpace=wrap;html=1;strokeWidth=2;fillWeight=4;hachureGap=8;hachureAngle=45;fillColor=#1ba1e2;sketch=1;" vertex="1" parent="1">
          <mxGeometry x="17.5" y="17" width="95" height="23" as="geometry" />
        </mxCell>
      </root>
    </mxGraphModel>
  </diagram>
</mxfile>
